<svg width="11" height="10" viewBox="0 0 11 10" fill="none" xmlns="http://www.w3.org/2000/svg">
<path d="M9.61365 1.70726C9.38559 1.48304 9.11482 1.30517 8.81679 1.18381C8.51877 1.06246 8.19934 1 7.87674 1C7.55415 1 7.23472 1.06246 6.93669 1.18381C6.63867 1.30517 6.3679 1.48304 6.13984 1.70726L5.66655 2.17238L5.19325 1.70726C4.7326 1.25456 4.10782 1.00023 3.45635 1.00023C2.80489 1.00023 2.1801 1.25456 1.71945 1.70726C1.25879 2.15996 1 2.77395 1 3.41416C1 4.05438 1.25879 4.66837 1.71945 5.12107L2.19274 5.58619L5.66655 9L9.14035 5.58619L9.61365 5.12107C9.84181 4.89695 10.0228 4.63086 10.1463 4.33798C10.2698 4.0451 10.3333 3.73119 10.3333 3.41416C10.3333 3.09714 10.2698 2.78322 10.1463 2.49035C10.0228 2.19747 9.84181 1.93137 9.61365 1.70726Z" stroke="#F8FAFC" stroke-linecap="round" stroke-linejoin="round"/>
</svg>
