<svg width="63" height="18" viewBox="0 0 63 18" fill="none" xmlns="http://www.w3.org/2000/svg">
<path d="M10.6 2.6H12.2C12.6243 2.6 13.0313 2.76857 13.3314 3.06863C13.6314 3.36869 13.8 3.77565 13.8 4.2V15.4C13.8 15.8243 13.6314 16.2313 13.3314 16.5314C13.0313 16.8314 12.6243 17 12.2 17H2.6C2.17565 17 1.76869 16.8314 1.46863 16.5314C1.16857 16.2313 1 15.8243 1 15.4V4.2C1 3.77565 1.16857 3.36869 1.46863 3.06863C1.76869 2.76857 2.17565 2.6 2.6 2.6H4.2M5 1H9.8C10.2418 1 10.6 1.35817 10.6 1.8V3.4C10.6 3.84183 10.2418 4.2 9.8 4.2H5C4.55817 4.2 4.2 3.84183 4.2 3.4V1.8C4.2 1.35817 4.55817 1 5 1Z" stroke="url(#paint0_linear_212_1347)" stroke-width="2" stroke-linecap="round" stroke-linejoin="round"/>
<path d="M27.404 11.296H23.912L23.012 13H21.584L26.048 4.648H27.632L29.144 13H27.704L27.404 11.296ZM27.224 10.228L26.54 6.304L24.476 10.228H27.224ZM34.4752 6.28C35.2992 6.28 35.9552 6.512 36.4432 6.976C36.9392 7.44 37.1872 8.064 37.1872 8.848C37.1872 9.032 37.1672 9.252 37.1272 9.508C37.0952 9.684 37.0392 9.9 36.9592 10.156H31.9072C31.8992 10.212 31.8952 10.296 31.8952 10.408C31.8952 10.88 32.0392 11.256 32.3272 11.536C32.6232 11.816 33.0072 11.956 33.4792 11.956C34.2232 11.956 34.7952 11.648 35.1952 11.032H36.6712C36.3672 11.64 35.9192 12.14 35.3272 12.532C34.7352 12.916 34.0512 13.108 33.2752 13.108C32.7232 13.108 32.2392 13 31.8232 12.784C31.4072 12.568 31.0832 12.26 30.8512 11.86C30.6192 11.452 30.5032 10.976 30.5032 10.432C30.5032 10.2 30.5272 9.952 30.5752 9.688C30.6952 9.008 30.9392 8.412 31.3072 7.9C31.6752 7.38 32.1312 6.98 32.6752 6.7C33.2272 6.42 33.8272 6.28 34.4752 6.28ZM35.7592 9.172C35.7752 9.028 35.7832 8.924 35.7832 8.86C35.7832 8.42 35.6352 8.072 35.3392 7.816C35.0512 7.56 34.6752 7.432 34.2112 7.432C33.7232 7.432 33.2832 7.588 32.8912 7.9C32.4992 8.212 32.2312 8.636 32.0872 9.172H35.7592ZM40.1774 7.552C40.4494 7.152 40.7694 6.84 41.1374 6.616C41.5134 6.392 41.9294 6.28 42.3854 6.28L42.1334 7.696H41.7854C41.2574 7.696 40.8334 7.828 40.5134 8.092C40.1934 8.356 39.9694 8.812 39.8414 9.46L39.2174 13H37.8494L39.0134 6.388H40.3814L40.1774 7.552ZM44.8909 13.108C44.4349 13.108 44.0189 13.032 43.6429 12.88C43.2669 12.72 42.9709 12.5 42.7549 12.22C42.5389 11.932 42.4309 11.604 42.4309 11.236C42.4309 11.172 42.4389 11.084 42.4549 10.972H43.7869C43.7549 11.276 43.8469 11.528 44.0629 11.728C44.2789 11.928 44.5829 12.028 44.9749 12.028C45.3589 12.028 45.6749 11.96 45.9229 11.824C46.1709 11.688 46.2949 11.488 46.2949 11.224C46.2949 11 46.1909 10.82 45.9829 10.684C45.7829 10.548 45.4589 10.396 45.0109 10.228C44.5869 10.06 44.2429 9.904 43.9789 9.76C43.7149 9.616 43.4869 9.42 43.2949 9.172C43.1029 8.916 43.0069 8.6 43.0069 8.224C43.0069 7.84 43.1149 7.504 43.3309 7.216C43.5549 6.92 43.8629 6.692 44.2549 6.532C44.6549 6.364 45.1109 6.28 45.6229 6.28C46.0869 6.28 46.4989 6.36 46.8589 6.52C47.2269 6.672 47.5109 6.892 47.7109 7.18C47.9189 7.46 48.0229 7.784 48.0229 8.152C48.0229 8.264 48.0189 8.348 48.0109 8.404H46.7149C46.7469 8.092 46.6549 7.84 46.4389 7.648C46.2309 7.456 45.9309 7.36 45.5389 7.36C45.1949 7.36 44.9149 7.432 44.6989 7.576C44.4909 7.72 44.3869 7.916 44.3869 8.164C44.3869 8.412 44.4949 8.612 44.7109 8.764C44.9269 8.908 45.2589 9.068 45.7069 9.244C46.1149 9.404 46.4469 9.556 46.7029 9.7C46.9589 9.844 47.1789 10.036 47.3629 10.276C47.5469 10.516 47.6389 10.816 47.6389 11.176C47.6389 11.568 47.5189 11.912 47.2789 12.208C47.0469 12.496 46.7229 12.72 46.3069 12.88C45.8909 13.032 45.4189 13.108 44.8909 13.108ZM50.8811 5.512C50.6651 5.512 50.4891 5.444 50.3531 5.308C50.2171 5.172 50.1491 5 50.1491 4.792C50.1491 4.512 50.2531 4.272 50.4611 4.072C50.6771 3.864 50.9211 3.76 51.1931 3.76C51.4091 3.76 51.5811 3.828 51.7091 3.964C51.8451 4.1 51.9131 4.272 51.9131 4.48C51.9131 4.76 51.8091 5.004 51.6011 5.212C51.3931 5.412 51.1531 5.512 50.8811 5.512ZM51.3971 6.388L50.2331 13H48.8651L50.0291 6.388H51.3971ZM52.1611 9.664C52.2811 9 52.5211 8.412 52.8811 7.9C53.2491 7.388 53.6971 6.992 54.2251 6.712C54.7531 6.424 55.3051 6.28 55.8811 6.28C56.4011 6.28 56.8371 6.384 57.1891 6.592C57.5411 6.792 57.8051 7.044 57.9811 7.348L58.1491 6.388H59.5291L58.3651 13H56.9851L57.1651 12.016C56.8771 12.328 56.5131 12.588 56.0731 12.796C55.6411 13.004 55.1691 13.108 54.6571 13.108C54.1611 13.108 53.7171 12.996 53.3251 12.772C52.9411 12.548 52.6371 12.232 52.4131 11.824C52.1971 11.408 52.0891 10.932 52.0891 10.396C52.0891 10.156 52.1131 9.912 52.1611 9.664ZM57.5731 9.688C57.6051 9.536 57.6211 9.372 57.6211 9.196C57.6211 8.66 57.4611 8.24 57.1411 7.936C56.8291 7.624 56.4371 7.468 55.9651 7.468C55.6131 7.468 55.2691 7.556 54.9331 7.732C54.5971 7.9 54.3051 8.152 54.0571 8.488C53.8091 8.816 53.6451 9.208 53.5651 9.664C53.5331 9.816 53.5171 9.98 53.5171 10.156C53.5171 10.7 53.6731 11.132 53.9851 11.452C54.3051 11.764 54.7011 11.92 55.1731 11.92C55.5251 11.92 55.8691 11.832 56.2051 11.656C56.5411 11.48 56.8331 11.224 57.0811 10.888C57.3291 10.544 57.4931 10.144 57.5731 9.688Z" fill="white"/>
<path d="M60.7019 13.084C60.4859 13.084 60.3099 13.016 60.1739 12.88C60.0379 12.744 59.9699 12.572 59.9699 12.364C59.9699 12.084 60.0739 11.844 60.2819 11.644C60.4979 11.436 60.7419 11.332 61.0139 11.332C61.2299 11.332 61.4019 11.4 61.5299 11.536C61.6659 11.672 61.7339 11.844 61.7339 12.052C61.7339 12.332 61.6299 12.576 61.4219 12.784C61.2139 12.984 60.9739 13.084 60.7019 13.084Z" fill="url(#paint1_linear_212_1347)"/>
<defs>
<linearGradient id="paint0_linear_212_1347" x1="13.6144" y1="1.04082" x2="0.814356" y2="17.0408" gradientUnits="userSpaceOnUse">
<stop stop-color="#FBBF24"/>
<stop offset="1" stop-color="#F59E0B"/>
</linearGradient>
<linearGradient id="paint1_linear_212_1347" x1="62.2053" y1="1.04082" x2="56.0365" y2="25.7401" gradientUnits="userSpaceOnUse">
<stop stop-color="#FBBF24"/>
<stop offset="1" stop-color="#F59E0B"/>
</linearGradient>
</defs>
</svg>
